<?xml version="1.0" encoding="UTF-8" standalone="no"?>
<svg
   xmlns:dc="http://purl.org/dc/elements/1.1/"
   xmlns:cc="http://creativecommons.org/ns#"
   xmlns:rdf="http://www.w3.org/1999/02/22-rdf-syntax-ns#"
   xmlns:svg="http://www.w3.org/2000/svg"
   xmlns="http://www.w3.org/2000/svg"
   xmlns:sodipodi="http://sodipodi.sourceforge.net/DTD/sodipodi-0.dtd"
   xmlns:inkscape="http://www.inkscape.org/namespaces/inkscape"
   width="210mm"
   height="297mm"
   viewBox="0 0 210 297"
   version="1.1"
   id="svg263"
   inkscape:version="1.0.1 (1.0.1+r73)"
   sodipodi:docname="logo.svg">
  <defs
     id="defs257" />
  <sodipodi:namedview
     id="base"
     pagecolor="#ffffff"
     bordercolor="#666666"
     borderopacity="1.0"
     inkscape:pageopacity="0.0"
     inkscape:pageshadow="2"
     inkscape:zoom="0.35"
     inkscape:cx="400"
     inkscape:cy="560"
     inkscape:document-units="mm"
     inkscape:current-layer="layer1"
     inkscape:document-rotation="0"
     showgrid="false"
     inkscape:window-width="1487"
     inkscape:window-height="1006"
     inkscape:window-x="50"
     inkscape:window-y="0"
     inkscape:window-maximized="0" />
  <metadata
     id="metadata260">
    <rdf:RDF>
      <cc:Work
         rdf:about="">
        <dc:format>image/svg+xml</dc:format>
        <dc:type
           rdf:resource="http://purl.org/dc/dcmitype/StillImage" />
        <dc:title></dc:title>
      </cc:Work>
    </rdf:RDF>
  </metadata>
  <g
     inkscape:label="Layer 1"
     inkscape:groupmode="layer"
     id="layer1">
    <path
       d="m 26.572995,52.042317 c 8.521546,3.624872 17.042554,7.24952 25.56412,10.874391 0.303934,37.099892 0.609107,74.199122 0.912833,111.299042 1.623596,-36.78031 3.24616,-73.55974 4.86924,-110.340049 34.666155,-13.268965 64.550202,-14.036163 86.152632,-2.477222 10.25875,6.135325 28.15859,20.86255 19.4501,52.690001 12.04142,-18.002851 7.36589,-35.549561 -9.12999,-52.770853 27.82346,17.160642 35.75795,53.835633 -3.3474,71.960653 30.92001,16.95155 44.14227,42.4878 41.99779,75.47861 7.56652,-27.67612 -1.97734,-48.97012 -20.69434,-66.84383 43.51579,23.33819 45.2956,90.5088 -12.17346,114.81745 -40.14652,16.74694 -60.85243,6.92275 -112.298282,-18.86954 -28.580128,-15.87554 -25.106009,18.01206 -10.651414,11.19398 -5.167698,12.43416 -34.0987857,-1.62378 -10.955886,-21.7481 -29.9610131,11.24204 0.559311,53.67054 19.477452,21.7481 1.930835,8.97391 -12.639649,29.74685 -34.389621,14.07232 -13.6936425,-16.83433 -8.3575526,-38.77669 8.825501,-45.73514 16.686676,-5.79127 30.547598,4.34918 49.041511,16.40422 54.084279,40.34972 94.001849,9.42625 104.093849,-12.37957 16.31716,-31.83485 1.70458,-74.18837 -49.96702,-89.09817 23.07726,-6.47356 45.93365,-25.97531 21.77351,-56.787837 C 133.59034,63.571377 115.38554,60.539198 95.615588,61.508302 77.40602,63.390364 68.275409,65.940124 68.875012,95.218699 c 0,26.226191 0,52.451271 0,78.677231 -0.475219,31.48516 18.971364,59.34547 53.289828,58.6544 50.31639,-11.20071 36.20508,-58.52707 20.96707,-68.88915 18.97344,29.27318 8.17005,57.61073 -22.36877,63.00559 28.42597,-16.55694 22.36877,-63.00559 -5.32554,-76.43806 -36.654064,-18.0033 -57.272415,-54.258301 -22.824363,-75.478614 30.047483,-14.39933 57.945313,11.467983 50.518673,31.342994 -4.47821,10.80005 -16.38761,17.87483 -28.6745,17.30685 26.48252,-9.49923 23.64855,-30.242071 16.19732,-38.415541 2.13208,15.309131 -0.004,25.397901 -11.01931,30.309001 12.5987,-13.90185 2.96951,-42.434798 -17.16841,-34.429311 -21.953884,14.13474 -8.626883,49.066921 19.05774,59.770161 61.65223,26.55476 50.67074,76.2575 30.01131,90.19863 -20.31272,12.8353 -45.68012,17.10542 -77.791293,-6.72486 -10.550276,-6.71589 -21.100449,-13.43246 -31.650705,-20.14904 0,-41.04368 0,-82.08804 0,-123.132411 C 43.105866,66.55324 39.35523,57.479393 24.279588,60.816571 c -5.931416,3.73245 -13.946192,10.979487 -12.25807,-2.351233 2.046748,-9.277105 7.631564,-9.576704 14.551373,-6.423021 z"
       style="fill:#a8111b;fill-rule:evenodd;stroke-width:5.69953"
       id="path2" />
  </g>
</svg>
